<?xml version="1.0" standalone="no"?>
<!DOCTYPE svg PUBLIC "-//W3C//DTD SVG 20010904//EN"
 "http://www.w3.org/TR/2001/REC-SVG-20010904/DTD/svg10.dtd">
<svg version="1.0" xmlns="http://www.w3.org/2000/svg"
 width="129.000000pt" height="129.000000pt" viewBox="0 0 129.000000 129.000000"
 preserveAspectRatio="xMidYMid meet">
<metadata>
Created by potrace 1.11, written by Peter Selinger 2001-2013
</metadata>
<g transform="translate(0.000000,129.000000) scale(0.100000,-0.100000)"
fill="#000000" stroke="none">
<path d="M290 1102 c0 -14 32 -76 43 -83 6 -4 7 -14 4 -24 -4 -9 -3 -14 2 -11
11 7 53 -62 46 -74 -3 -4 2 -11 11 -14 27 -10 10 -17 -53 -22 -92 -7 -167 -13
-175 -13 -12 -1 -9 -21 2 -21 20 0 52 -38 44 -52 -6 -11 -5 -11 8 0 12 10 17
10 27 -1 6 -8 8 -17 4 -21 -4 -4 -1 -5 7 -1 8 3 28 -6 44 -20 16 -14 23 -25
17 -25 -7 0 -27 -6 -44 -14 -18 -7 -72 -28 -122 -46 -50 -18 -94 -36 -99 -41
-5 -4 -6 -19 -2 -32 6 -26 35 -40 56 -27 17 11 51 0 44 -14 -3 -6 0 -4 8 4 14
17 62 25 52 9 -3 -6 -13 -8 -23 -4 -11 4 -13 3 -5 -5 10 -10 44 -4 44 9 0 9
107 8 116 -1 4 -5 12 -8 18 -8 6 0 5 4 -2 9 -11 7 -11 9 2 14 11 4 16 1 16
-11 0 -14 2 -15 10 -2 5 8 11 12 14 9 3 -3 -7 -19 -22 -35 -15 -16 -55 -61
-90 -100 -60 -69 -61 -72 -35 -71 16 1 30 5 33 9 3 4 17 9 30 10 14 2 31 9 39
16 7 7 20 11 27 8 7 -3 16 -1 19 5 4 5 11 7 16 4 5 -4 9 -1 9 6 0 7 3 9 7 6 3
-4 12 -2 19 3 6 6 21 13 33 15 20 4 21 0 22 -78 1 -45 0 -94 -1 -110 -2 -35 5
-34 40 3 15 16 30 26 34 23 3 -3 6 -1 6 6 0 7 4 9 10 6 6 -4 7 1 3 11 -5 14
-3 16 11 11 10 -4 15 -3 11 3 -3 6 1 10 9 10 9 0 15 5 14 11 -4 18 18 21 35 5
8 -8 18 -12 22 -8 5 4 5 -1 2 -11 -4 -11 -3 -16 3 -12 5 3 22 -7 38 -22 15
-15 41 -37 58 -49 l29 -21 2 21 c4 40 9 66 15 72 4 3 4 12 1 20 -3 8 0 14 7
14 6 0 8 5 5 10 -11 17 5 49 20 43 8 -3 12 -10 8 -17 -4 -6 0 -6 9 2 11 9 18
10 23 2 3 -5 15 -10 26 -10 10 0 19 -4 19 -10 0 -5 3 -9 8 -8 17 5 73 -13 67
-21 -3 -5 0 -13 6 -17 8 -4 9 -3 5 4 -4 7 -1 12 8 12 8 0 16 -4 18 -10 2 -5 8
-6 14 -2 8 5 4 24 -15 62 -66 139 -64 132 -40 119 13 -7 19 -7 15 -1 -8 13 34
12 52 -1 9 -7 11 -6 6 7 -5 12 -2 15 10 10 9 -3 13 -11 10 -18 -3 -6 2 -2 11
9 9 11 19 18 23 16 26 -13 52 -20 47 -11 -3 6 0 10 9 10 8 0 13 7 11 18 -2 9
-4 20 -4 24 -1 4 -35 30 -76 59 -73 50 -75 53 -58 71 9 10 23 16 30 14 7 -3
12 -2 12 2 -3 17 2 32 10 32 9 0 81 65 81 74 0 3 -31 4 -70 3 -38 -1 -70 1
-70 6 0 4 -9 3 -20 -3 -27 -14 -25 1 3 27 12 11 35 36 52 56 16 19 33 33 37
31 12 -8 -1 39 -16 54 -12 12 -27 8 -107 -28 -52 -23 -99 -44 -105 -47 -10 -4
-24 36 -38 112 -9 46 -19 75 -25 75 -3 0 -21 -20 -38 -43 -18 -23 -46 -57 -63
-76 l-29 -33 -49 53 -49 53 -23 -62 c-12 -34 -27 -62 -32 -62 -8 0 -197 108
-275 156 -13 8 -23 11 -23 6z"/>
<path d="M475 430 c-3 -5 -1 -10 4 -10 6 0 11 5 11 10 0 6 -2 10 -4 10 -3 0
-8 -4 -11 -10z"/>
</g>
</svg>
