<svg version="1.1" xmlns="http://www.w3.org/2000/svg">  
  <defs>
    <!-- Home -->
    <symbol id="home" viewBox="0 0 20 19">
      <path d="M19.9639 10.368C19.9831 10.5073 19.9371 10.6477 19.8396 10.7471C19.742 10.8466 19.6044 10.8935 19.4678 10.874C18.8796 10.874 18.2776 10.874 17.6816 10.874C17.3973 10.874 17.3522 10.924 17.3522 11.218C17.3522 13.2633 17.3522 15.3086 17.3522 17.354C17.3788 17.7179 17.2501 18.0758 16.9992 18.336C16.7483 18.5961 16.3995 18.7332 16.0424 18.712H12.709C12.26 18.712 12.1384 18.58 12.1384 18.112C12.1384 17.064 12.1384 16.016 12.1384 14.968C12.1355 13.9711 11.4132 13.1286 10.445 12.9927C9.47674 12.8568 8.55822 13.4689 8.29137 14.428C8.22999 14.6499 8.19898 14.8794 8.19922 15.11C8.19922 16.11 8.19922 17.11 8.19922 18.124C8.19922 18.578 8.06392 18.724 7.61098 18.724H4.33059C3.47961 18.724 2.95804 18.204 2.9698 17.338C2.9698 16.338 2.9698 15.358 2.9698 14.368C2.9698 13.32 2.9698 12.272 2.9698 11.224C2.9698 10.946 2.91882 10.894 2.64824 10.894C2.08876 10.894 1.52928 10.894 0.969805 10.894C0.495295 10.894 0.356079 10.76 0.356079 10.294C0.356079 9.89397 0.356079 9.49397 0.356079 9.07997C0.337799 8.75033 0.478316 8.43233 0.73255 8.22797C3.22667 6.11064 5.71948 3.99264 8.21098 1.87397L8.89726 1.29197C9.62937 0.657478 10.7044 0.657478 11.4365 1.29197L19.5816 8.22197C19.824 8.41331 19.9648 8.70931 19.962 9.02197C19.9639 9.47797 19.9639 9.92597 19.9639 10.368Z" />
      <path d="M16.8267 5.16797L15.2973 3.87197C14.709 3.37397 14.1208 2.87197 13.5325 2.37797C13.4319 2.30998 13.3767 2.19045 13.3894 2.06797C13.4012 1.93197 13.3894 1.79397 13.3894 1.65597C13.378 1.47997 13.4389 1.30706 13.5576 1.17879C13.6763 1.05051 13.842 0.978469 14.0149 0.97997C14.7443 0.96797 15.4737 0.96797 16.2031 0.97997C16.5373 0.97312 16.8158 1.23942 16.8306 1.57997C16.8384 2.76797 16.8267 3.94397 16.8267 5.16797Z" />
    </symbol>
    <!-- Star -->
    <symbol id="star" viewBox="0 0 21 21">
      <path d="M15.2909 6.5686L19.6134 7.21838C20.839 7.40256 21.3301 8.973 20.4445 9.87561L17.3208 13.0589C16.9691 13.4174 16.8091 13.9334 16.8927 14.4388L17.636 18.9275C17.8467 20.2004 16.5669 21.1728 15.47 20.5732L11.6023 18.4584C11.1667 18.2203 10.6466 18.2208 10.2117 18.4601L6.3487 20.5847C5.25332 21.1871 3.97105 20.2177 4.17884 18.9444L4.91186 14.4538C4.99431 13.9482 4.83324 13.4324 4.48054 13.0748L1.3501 9.89928C0.462302 8.99877 0.949783 7.42716 2.17523 7.23994L6.49606 6.57962C6.98265 6.50533 7.40296 6.18595 7.61997 5.72574L9.5481 1.63843C10.0949 0.479466 11.6784 0.477357 12.2277 1.63515L14.165 5.71754C14.3832 6.17705 14.8041 6.49549 15.2909 6.5686Z" />
    </symbol>
    <!-- Plus -->
    <symbol id="plus" viewBox="0 0 20 20">
      <path d="M0.359985 10.268C0.359985 15.5147 4.61328 19.768 9.85999 19.768C15.1067 19.768 19.36 15.5147 19.36 10.268C19.36 5.0213 15.1067 0.768005 9.85999 0.768005C4.61328 0.768005 0.359985 5.0213 0.359985 10.268ZM5.02362 11.1316C4.54665 11.1316 4.15999 10.745 4.15999 10.268C4.15999 9.79103 4.54665 9.40437 5.02362 9.40437H8.13271C8.60969 9.40437 8.99635 9.01771 8.99635 8.54073V5.43164C8.99635 4.95467 9.38301 4.56801 9.85999 4.56801C10.337 4.56801 10.7236 4.95467 10.7236 5.43164V8.54073C10.7236 9.01771 11.1103 9.40437 11.5873 9.40437H14.6963C15.1733 9.40437 15.56 9.79103 15.56 10.268C15.56 10.745 15.1733 11.1316 14.6963 11.1316H11.5873C11.1103 11.1316 10.7236 11.5183 10.7236 11.9953V15.1044C10.7236 15.5813 10.337 15.968 9.85999 15.968C9.38301 15.968 8.99635 15.5813 8.99635 15.1044V11.9953C8.99635 11.5183 8.60969 11.1316 8.13271 11.1316H5.02362Z"/>
    </symbol>
    <!-- Info -->
    <symbol id="info" viewBox="0 0 24 24">
      <path d="M12 0c-6.627 0-12 5.373-12 12s5.373 12 12 12 12-5.373 12-12-5.373-12-12-12zm-2.033 16.01c.564-1.789 1.632-3.932 1.821-4.474.273-.787-.211-1.136-1.74.209l-.34-.64c1.744-1.897 5.335-2.326 4.113.613-.763 1.835-1.309 3.074-1.621 4.03-.455 1.393.694.828 1.819-.211.153.25.203.331.356.619-2.498 2.378-5.271 2.588-4.408-.146zm4.742-8.169c-.532.453-1.32.443-1.761-.022-.441-.465-.367-1.208.164-1.661.532-.453 1.32-.442 1.761.022.439.466.367 1.209-.164 1.661z"/>
    </symbol>
    <!-- Clock -->
    <symbol id="clock" viewBox="0 0 24 24">
      <path d="M12 2c5.514 0 10 4.486 10 10s-4.486 10-10 10-10-4.486-10-10 4.486-10 10-10zm0-2c-6.627 0-12 5.373-12 12s5.373 12 12 12 12-5.373 12-12-5.373-12-12-12zm1 12v-6h-2v8h7v-2h-5z"/>
    </symbol>
    <!-- Share -->
    <svg id="share" viewBox="0 0 24 24">
      <path d="M21 13v10h-21v-19h12v2h-10v15h17v-8h2zm3-12h-10.988l4.035 4-6.977 7.07 2.828 2.828 6.977-7.07 4.125 4.172v-11z"/>
    </svg>
    <!-- Menu -->
    <symbol id="menu" viewBox="0 0 24 24">
      <path d="M12 18c1.657 0 3 1.343 3 3s-1.343 3-3 3-3-1.343-3-3 1.343-3 3-3zm0-9c1.657 0 3 1.343 3 3s-1.343 3-3 3-3-1.343-3-3 1.343-3 3-3zm0-9c1.657 0 3 1.343 3 3s-1.343 3-3 3-3-1.343-3-3 1.343-3 3-3z"/>
    </symbol>
    <!-- Menu horizontal -->
    <symbol id="menu-horizontal" viewBox="0 0 24 24">
      <path d="M6 12c0 1.657-1.343 3-3 3s-3-1.343-3-3 1.343-3 3-3 3 1.343 3 3zm9 0c0 1.657-1.343 3-3 3s-3-1.343-3-3 1.343-3 3-3 3 1.343 3 3zm9 0c0 1.657-1.343 3-3 3s-3-1.343-3-3 1.343-3 3-3 3 1.343 3 3z"/>
    </symbol>
    <!-- Arrow left -->
    <symbol id="arrow-left" viewBox="0 0 23 23">
      <path d="M12.4719 0.770572C12.0992 0.409809 11.5017 0.409809 11.129 0.770572L0.786393 10.8144V10.8144C0.404716 11.184 0.404583 11.7918 0.786198 12.1614V12.1614L11.1273 22.2032V22.2032C11.316 22.3873 11.5628 22.476 11.8002 22.476C12.0405 22.476 12.2849 22.3874 12.4732 22.2036C12.8533 21.8338 12.8522 21.2282 12.473 20.8588L2.82264 11.4877L12.4725 2.11718C12.8533 1.74738 12.8524 1.1413 12.473 0.771686L12.4719 0.770572Z" />
    </symbol>
    <!-- Paperplane -->
    <symbol id="paperplane" viewBox="0 0 24 24">
      <path d="M24 0l-6 22-8.129-7.239 7.802-8.234-10.458 7.227-7.215-1.754 24-12zm-15 16.668v7.332l3.258-4.431-3.258-2.901z"/>
    </symbol>
    <!-- Heart -->
    <svg id="heart" viewBox="0 0 24 24">
      <path d="M12 4.435c-1.989-5.399-12-4.597-12 3.568 0 4.068 3.06 9.481 12 14.997 8.94-5.516 12-10.929 12-14.997 0-8.118-10-8.999-12-3.568z"/>
    </svg>
    <!-- VS -->
    <symbol id="versus" width="142" height="110" viewBox="0 0 142 110">
      <path fill-rule="evenodd" clip-rule="evenodd" d="M98.4053 0L84.4163 18.8128L73.804 4.34141L68.0154 21.2247L35.2137 0L49.2026 27.978L20.7423 29.9075L41.033 46.5563L0 65.6035H49.2026L31.3219 90.9891L59.8105 79.6839V107.088L75.6995 92.9146L93.0991 109.5L98.4053 86.3458L123.007 95.511L113.841 72.8392L141.337 69.9449L120.112 52.0969L136.513 35.696L115.642 34.5061L139.054 5.61581L104.194 22.6718L98.4053 0Z" fill="white"/>
      <path fill-rule="evenodd" clip-rule="evenodd" d="M97.9663 3.85904L84.5714 22.6502L74.5178 9.46611L69.4792 25.356L40.857 6.19572L52.8348 30.26L26.4359 32.1522L45.1293 47.9724L6.27094 64.2307L55.1167 62.5987L36.6322 86.8512L61.5596 76.9591L61.676 103.051L75.4625 88.536L92.1536 105.159L96.4677 82.4052L119.899 92.6096L110.748 70.5176L137.478 68.7663L116.703 52.428L132.252 37.3749L110.412 37.4286L130.897 12.1495L102.526 27.2002L97.9663 3.85904Z" fill="url(#paint0_linear)"/>
      <path d="M81.4219 40.3672L75.167 64.1562L66.6904 64.6348L59 40.6064L67.1006 39.8545L70.3818 53.8682L73.5605 39.8545L81.4219 40.3672Z" fill="white"/>
      <path d="M99.1099 55.2354C99.1099 56.7962 98.8364 58.1634 98.2896 59.3369C97.7541 60.499 97.0135 61.4674 96.0679 62.2422C95.1336 63.0169 94.0342 63.598 92.7695 63.9854C91.5163 64.3727 90.1662 64.5664 88.7192 64.5664C88.161 64.5664 87.5457 64.4924 86.8735 64.3442C86.2127 64.1961 85.5405 64.0138 84.8569 63.7974C84.1733 63.5695 83.5125 63.3302 82.8745 63.0796C82.2479 62.8175 81.6896 62.5726 81.1997 62.3447L81.9517 55.3037C82.9201 55.8848 83.991 56.3291 85.1646 56.6367C86.3494 56.9329 87.5116 57.0811 88.6509 57.0811C88.8674 57.0811 89.1294 57.0754 89.437 57.064C89.7446 57.0412 90.0352 56.9899 90.3086 56.9102C90.5934 56.819 90.8327 56.688 91.0264 56.5171C91.2201 56.3462 91.3169 56.1012 91.3169 55.7822C91.3169 55.5658 91.2485 55.3835 91.1118 55.2354C90.9751 55.0758 90.7985 54.9505 90.582 54.8594C90.3656 54.7568 90.1206 54.6828 89.8472 54.6372C89.5737 54.5802 89.306 54.5404 89.0439 54.5176C88.7819 54.4948 88.5369 54.4834 88.3091 54.4834C88.0812 54.4834 87.8989 54.4834 87.7622 54.4834C86.7824 54.4834 85.888 54.3125 85.0791 53.9707C84.2816 53.6289 83.5923 53.1561 83.0112 52.5522C82.4416 51.937 81.9972 51.2135 81.6782 50.3818C81.3592 49.5387 81.1997 48.6273 81.1997 47.6475C81.1997 46.3031 81.4674 45.1011 82.0029 44.0415C82.5498 42.9705 83.2733 42.0648 84.1733 41.3242C85.0848 40.5723 86.1273 39.9969 87.3008 39.5981C88.4743 39.1994 89.6877 39 90.9409 39C91.4992 39 92.0745 39.0228 92.667 39.0684C93.2594 39.1025 93.8462 39.1709 94.4272 39.2734C95.0197 39.376 95.5951 39.507 96.1533 39.6665C96.7116 39.826 97.2414 40.0254 97.7427 40.2646L97.0933 47.2031C96.3185 46.9411 95.5039 46.7246 94.6494 46.5537C93.8063 46.3714 92.9803 46.2803 92.1714 46.2803C92.0233 46.2803 91.8296 46.286 91.5903 46.2974C91.3625 46.2974 91.1175 46.3145 90.8555 46.3486C90.6048 46.3714 90.3485 46.4113 90.0864 46.4683C89.8244 46.5252 89.5908 46.605 89.3857 46.7075C89.1807 46.7987 89.0155 46.924 88.8901 47.0835C88.7648 47.243 88.7078 47.431 88.7192 47.6475C88.7306 47.8981 88.8218 48.1032 88.9927 48.2627C89.175 48.4108 89.4028 48.5304 89.6763 48.6216C89.9611 48.7013 90.2687 48.7583 90.5991 48.7925C90.9409 48.8267 91.277 48.8494 91.6074 48.8608C91.9378 48.8608 92.2454 48.8608 92.5303 48.8608C92.8151 48.8494 93.0487 48.8551 93.231 48.8779C94.1424 48.9349 94.9627 49.1286 95.6919 49.459C96.4211 49.7894 97.0363 50.228 97.5376 50.7749C98.0503 51.3218 98.4377 51.9769 98.6997 52.7402C98.9731 53.4922 99.1099 54.3239 99.1099 55.2354Z" fill="white"/>
      <defs>
      <linearGradient id="paint0_linear" x1="22.9287" y1="-0.250619" x2="5.21259" y2="105.05" gradientUnits="userSpaceOnUse">
      <stop stop-color="#730044"/>
      <stop offset="1" stop-color="#10A7DB"/>
      </linearGradient>
      </defs>
    </symbol>
    <!-- Upvote -->
    <symbol id="upvote" width="83" height="65" viewBox="0 0 83 65">
      <path fill-rule="evenodd" clip-rule="evenodd" d="M57.6013 0L49.4129 11.012L43.201 2.54123L39.8127 12.4238L20.6122 0L28.8006 16.3768L12.1414 17.5063L24.0186 27.2516L0 38.4009H28.8006L18.3342 53.2603L35.0099 46.6428V62.6838L44.3105 54.3874L54.4953 64.0956L57.6013 50.5423L72.0016 55.9071L66.6368 42.6363L82.7313 40.9421L70.3075 30.4948L79.9077 20.8946L67.6907 20.1981L81.3947 3.2872L60.9896 13.2709L57.6013 0Z" fill="white"/>
      <path fill-rule="evenodd" clip-rule="evenodd" d="M57.3443 2.25887L49.5036 13.2582L43.6188 5.54095L40.6694 14.8421L23.9155 3.62663L30.9267 17.7126L15.4741 18.8202L26.4163 28.0805L3.67065 37.5973L32.2624 36.642L21.4425 50.8381L36.0338 45.0478L36.1019 60.3206L44.1718 51.8243L53.9419 61.5543L56.4671 48.2357L70.1826 54.2088L64.8259 41.2773L80.4724 40.2522L68.3119 30.6886L77.4131 21.8773L64.6295 21.9087L76.6204 7.11168L60.0132 15.9216L57.3443 2.25887Z" fill="url(#paint0_linear)"/>
      <path d="M43.8702 30.2106C44.9946 30.2106 45.776 30.4047 46.2144 30.793C46.6718 31.1619 46.9005 31.8026 46.9005 32.715C46.9005 33.511 46.6337 34.0643 46.1 34.3749C45.5855 34.6856 44.7469 34.8409 43.5843 34.8409H42.4694V36.6755C42.4694 38.4228 41.7356 39.2964 40.2681 39.2964C38.6862 39.2964 37.8953 38.3548 37.8953 36.4717V34.8409H36.18C34.4838 34.8409 33.6357 34.0934 33.6357 32.5985C33.6357 31.8608 33.8167 31.2784 34.1788 30.8513C34.56 30.4241 35.2557 30.2106 36.2658 30.2106H37.8953V28.8419C37.8953 27.6965 38.0763 26.9005 38.4385 26.4539C38.8196 26.0074 39.4676 25.7842 40.3824 25.7842C40.897 25.7842 41.3068 25.9104 41.6117 26.1627C41.9167 26.3957 42.1358 26.7549 42.2692 27.2402C42.4027 27.7256 42.4694 28.3662 42.4694 29.1622V30.2106H43.8702Z" fill="white"/>
      <path d="M58.2716 35.9184C58.2716 37.4909 57.9952 38.6169 57.4425 39.2964C56.8898 39.9565 56.0513 40.2865 54.9268 40.2865C54.1835 40.2865 53.5832 40.1701 53.1258 39.9371C52.6684 39.7041 52.3158 39.277 52.068 38.6557C51.8393 38.0345 51.7154 37.1997 51.6964 36.1513L51.6392 25.2891C50.7244 25.2891 49.9716 25.1241 49.3807 24.794C48.7899 24.4446 48.4945 23.8719 48.4945 23.0759C48.4945 22.4352 48.7613 21.911 49.295 21.5033C49.8477 21.0762 50.61 20.8627 51.582 20.8627C51.9632 20.8627 52.4968 20.8724 53.1829 20.8918C53.8881 20.8918 54.3836 20.8918 54.6695 20.8918C56.0799 20.8918 57.0233 21.1345 57.4997 21.6198C57.9952 22.0858 58.243 22.9109 58.243 24.0951L58.2716 35.9184Z" fill="white"/>
      <defs>
      <linearGradient id="paint0_linear" x1="13.4213" y1="-0.146713" x2="3.05115" y2="61.4908" gradientUnits="userSpaceOnUse">
      <stop stop-color="#730044"/>
      <stop offset="1" stop-color="#10A7DB"/>
      </linearGradient>
      </defs>
    </symbol>
  </defs>
</svg>