<svg version="1.1" xmlns="http://www.w3.org/2000/svg">  
  <defs>
    <!-- Home -->
    <symbol id="home" viewBox="0 0 20 19">
      <path d="M19.9639 10.368C19.9831 10.5073 19.9371 10.6477 19.8396 10.7471C19.742 10.8466 19.6044 10.8935 19.4678 10.874C18.8796 10.874 18.2776 10.874 17.6816 10.874C17.3973 10.874 17.3522 10.924 17.3522 11.218C17.3522 13.2633 17.3522 15.3086 17.3522 17.354C17.3788 17.7179 17.2501 18.0758 16.9992 18.336C16.7483 18.5961 16.3995 18.7332 16.0424 18.712H12.709C12.26 18.712 12.1384 18.58 12.1384 18.112C12.1384 17.064 12.1384 16.016 12.1384 14.968C12.1355 13.9711 11.4132 13.1286 10.445 12.9927C9.47674 12.8568 8.55822 13.4689 8.29137 14.428C8.22999 14.6499 8.19898 14.8794 8.19922 15.11C8.19922 16.11 8.19922 17.11 8.19922 18.124C8.19922 18.578 8.06392 18.724 7.61098 18.724H4.33059C3.47961 18.724 2.95804 18.204 2.9698 17.338C2.9698 16.338 2.9698 15.358 2.9698 14.368C2.9698 13.32 2.9698 12.272 2.9698 11.224C2.9698 10.946 2.91882 10.894 2.64824 10.894C2.08876 10.894 1.52928 10.894 0.969805 10.894C0.495295 10.894 0.356079 10.76 0.356079 10.294C0.356079 9.89397 0.356079 9.49397 0.356079 9.07997C0.337799 8.75033 0.478316 8.43233 0.73255 8.22797C3.22667 6.11064 5.71948 3.99264 8.21098 1.87397L8.89726 1.29197C9.62937 0.657478 10.7044 0.657478 11.4365 1.29197L19.5816 8.22197C19.824 8.41331 19.9648 8.70931 19.962 9.02197C19.9639 9.47797 19.9639 9.92597 19.9639 10.368Z" />
      <path d="M16.8267 5.16797L15.2973 3.87197C14.709 3.37397 14.1208 2.87197 13.5325 2.37797C13.4319 2.30998 13.3767 2.19045 13.3894 2.06797C13.4012 1.93197 13.3894 1.79397 13.3894 1.65597C13.378 1.47997 13.4389 1.30706 13.5576 1.17879C13.6763 1.05051 13.842 0.978469 14.0149 0.97997C14.7443 0.96797 15.4737 0.96797 16.2031 0.97997C16.5373 0.97312 16.8158 1.23942 16.8306 1.57997C16.8384 2.76797 16.8267 3.94397 16.8267 5.16797Z" />
    </symbol>
    <!-- Star -->
    <symbol id="star" viewBox="0 0 21 21">
      <path d="M15.2909 6.5686L19.6134 7.21838C20.839 7.40256 21.3301 8.973 20.4445 9.87561L17.3208 13.0589C16.9691 13.4174 16.8091 13.9334 16.8927 14.4388L17.636 18.9275C17.8467 20.2004 16.5669 21.1728 15.47 20.5732L11.6023 18.4584C11.1667 18.2203 10.6466 18.2208 10.2117 18.4601L6.3487 20.5847C5.25332 21.1871 3.97105 20.2177 4.17884 18.9444L4.91186 14.4538C4.99431 13.9482 4.83324 13.4324 4.48054 13.0748L1.3501 9.89928C0.462302 8.99877 0.949783 7.42716 2.17523 7.23994L6.49606 6.57962C6.98265 6.50533 7.40296 6.18595 7.61997 5.72574L9.5481 1.63843C10.0949 0.479466 11.6784 0.477357 12.2277 1.63515L14.165 5.71754C14.3832 6.17705 14.8041 6.49549 15.2909 6.5686Z" />
    </symbol>
    <!-- Plus -->
    <symbol id="plus" viewBox="0 0 20 20">
      <path d="M0.359985 10.268C0.359985 15.5147 4.61328 19.768 9.85999 19.768C15.1067 19.768 19.36 15.5147 19.36 10.268C19.36 5.0213 15.1067 0.768005 9.85999 0.768005C4.61328 0.768005 0.359985 5.0213 0.359985 10.268ZM5.02362 11.1316C4.54665 11.1316 4.15999 10.745 4.15999 10.268C4.15999 9.79103 4.54665 9.40437 5.02362 9.40437H8.13271C8.60969 9.40437 8.99635 9.01771 8.99635 8.54073V5.43164C8.99635 4.95467 9.38301 4.56801 9.85999 4.56801C10.337 4.56801 10.7236 4.95467 10.7236 5.43164V8.54073C10.7236 9.01771 11.1103 9.40437 11.5873 9.40437H14.6963C15.1733 9.40437 15.56 9.79103 15.56 10.268C15.56 10.745 15.1733 11.1316 14.6963 11.1316H11.5873C11.1103 11.1316 10.7236 11.5183 10.7236 11.9953V15.1044C10.7236 15.5813 10.337 15.968 9.85999 15.968C9.38301 15.968 8.99635 15.5813 8.99635 15.1044V11.9953C8.99635 11.5183 8.60969 11.1316 8.13271 11.1316H5.02362Z"/>
    </symbol>
    <!-- Info -->
    <symbol id="info" viewBox="0 0 24 24">
      <path d="M12 0c-6.627 0-12 5.373-12 12s5.373 12 12 12 12-5.373 12-12-5.373-12-12-12zm-2.033 16.01c.564-1.789 1.632-3.932 1.821-4.474.273-.787-.211-1.136-1.74.209l-.34-.64c1.744-1.897 5.335-2.326 4.113.613-.763 1.835-1.309 3.074-1.621 4.03-.455 1.393.694.828 1.819-.211.153.25.203.331.356.619-2.498 2.378-5.271 2.588-4.408-.146zm4.742-8.169c-.532.453-1.32.443-1.761-.022-.441-.465-.367-1.208.164-1.661.532-.453 1.32-.442 1.761.022.439.466.367 1.209-.164 1.661z"/>
    </symbol>
    <!-- Clock -->
    <symbol id="clock" viewBox="0 0 24 24">
      <path d="M12 2c5.514 0 10 4.486 10 10s-4.486 10-10 10-10-4.486-10-10 4.486-10 10-10zm0-2c-6.627 0-12 5.373-12 12s5.373 12 12 12 12-5.373 12-12-5.373-12-12-12zm1 12v-6h-2v8h7v-2h-5z"/>
    </symbol>
    <!-- Share -->
    <svg id="share" viewBox="0 0 24 24">
      <path d="M21 13v10h-21v-19h12v2h-10v15h17v-8h2zm3-12h-10.988l4.035 4-6.977 7.07 2.828 2.828 6.977-7.07 4.125 4.172v-11z"/>
    </svg>
    <!-- Menu -->
    <symbol id="menu" viewBox="0 0 24 24">
      <path d="M12 18c1.657 0 3 1.343 3 3s-1.343 3-3 3-3-1.343-3-3 1.343-3 3-3zm0-9c1.657 0 3 1.343 3 3s-1.343 3-3 3-3-1.343-3-3 1.343-3 3-3zm0-9c1.657 0 3 1.343 3 3s-1.343 3-3 3-3-1.343-3-3 1.343-3 3-3z"/>
    </symbol>
    <!-- Menu horizontal -->
    <symbol id="menu-horizontal" viewBox="0 0 24 24">
      <path d="M6 12c0 1.657-1.343 3-3 3s-3-1.343-3-3 1.343-3 3-3 3 1.343 3 3zm9 0c0 1.657-1.343 3-3 3s-3-1.343-3-3 1.343-3 3-3 3 1.343 3 3zm9 0c0 1.657-1.343 3-3 3s-3-1.343-3-3 1.343-3 3-3 3 1.343 3 3z"/>
    </symbol>
    <!-- Arrow left -->
    <symbol id="arrow-left" viewBox="0 0 23 23">
      <path d="M12.4719 0.770572C12.0992 0.409809 11.5017 0.409809 11.129 0.770572L0.786393 10.8144V10.8144C0.404716 11.184 0.404583 11.7918 0.786198 12.1614V12.1614L11.1273 22.2032V22.2032C11.316 22.3873 11.5628 22.476 11.8002 22.476C12.0405 22.476 12.2849 22.3874 12.4732 22.2036C12.8533 21.8338 12.8522 21.2282 12.473 20.8588L2.82264 11.4877L12.4725 2.11718C12.8533 1.74738 12.8524 1.1413 12.473 0.771686L12.4719 0.770572Z" />
    </symbol>
    <!-- Paperplane -->
    <symbol id="paperplane" viewBox="0 0 24 24">
      <path d="M24 0l-6 22-8.129-7.239 7.802-8.234-10.458 7.227-7.215-1.754 24-12zm-15 16.668v7.332l3.258-4.431-3.258-2.901z"/>
    </symbol>
    <!-- Heart -->
    <svg id="heart" viewBox="0 0 24 24">
      <path d="M12 4.435c-1.989-5.399-12-4.597-12 3.568 0 4.068 3.06 9.481 12 14.997 8.94-5.516 12-10.929 12-14.997 0-8.118-10-8.999-12-3.568z"/>
    </svg>
    <!-- VS -->
    <symbol id="versus" width="121" height="90" viewBox="0 0 121 90">
      <path d="M83.4428 6.66987L82.7686 3.68165L80.8216 6.0466L70.2577 18.8778L62.6528 10.243L60.9859 8.35045L60.1186 10.7186L56.3383 21.0405L32.9192 7.46688L28.0775 4.66064L30.8666 9.51224L40.1097 25.5904L19.4956 26.8698L15.3579 27.1266L18.7019 29.5768L32.7383 39.8619L1.4891 51.1821L2.04337 54.0918L41.1987 52.9591L27.3561 68.6842L23.6156 72.9334L28.9694 71.0939L48.7354 64.3026L48.8261 81.917L48.8435 85.2905L51.3366 83.0179L62.3788 72.9522L75.9301 84.637L77.8365 86.2808L78.3749 83.8219L81.7666 68.3334L100.581 75.4276L104.075 76.745L102.463 73.3766L95.4467 58.7112L116.528 57.5153L117.943 57.435V56.0177V56.0171V55.2237L117.287 54.7772L100.805 43.555L112.848 33.4606L116.019 30.8022L111.881 30.8111L96.3007 30.8442L111.798 14.2859L110.077 11.8978L87.0125 22.4915L83.4428 6.66987Z" fill="url(#paint0_linear)" stroke="white" stroke-width="3"/>
      <path d="M70.7725 34.04L64.5176 57.8291L56.041 58.3076L48.3506 34.2793L56.4512 33.5273L59.7324 47.541L62.9111 33.5273L70.7725 34.04Z" fill="white"/>
      <path d="M88.4604 48.9082C88.4604 50.4691 88.187 51.8363 87.6401 53.0098C87.1047 54.1719 86.3641 55.1403 85.4185 55.915C84.4842 56.6898 83.3848 57.2708 82.1201 57.6582C80.8669 58.0456 79.5168 58.2393 78.0698 58.2393C77.5116 58.2393 76.8963 58.1652 76.2241 58.0171C75.5633 57.869 74.8911 57.6867 74.2075 57.4702C73.5239 57.2424 72.8631 57.0031 72.2251 56.7524C71.5985 56.4904 71.0402 56.2454 70.5503 56.0176L71.3022 48.9766C72.2707 49.5576 73.3416 50.002 74.5151 50.3096C75.7 50.6058 76.8621 50.7539 78.0015 50.7539C78.2179 50.7539 78.48 50.7482 78.7876 50.7368C79.0952 50.714 79.3857 50.6628 79.6592 50.583C79.944 50.4919 80.1833 50.3608 80.377 50.1899C80.5706 50.019 80.6675 49.7741 80.6675 49.4551C80.6675 49.2386 80.5991 49.0563 80.4624 48.9082C80.3257 48.7487 80.1491 48.6234 79.9326 48.5322C79.7161 48.4297 79.4712 48.3556 79.1978 48.3101C78.9243 48.2531 78.6566 48.2132 78.3945 48.1904C78.1325 48.1676 77.8875 48.1562 77.6597 48.1562C77.4318 48.1562 77.2495 48.1562 77.1128 48.1562C76.133 48.1562 75.2386 47.9854 74.4297 47.6436C73.6322 47.3018 72.9429 46.8289 72.3618 46.2251C71.7922 45.6099 71.3478 44.8864 71.0288 44.0547C70.7098 43.2116 70.5503 42.3001 70.5503 41.3203C70.5503 39.9759 70.818 38.7739 71.3535 37.7144C71.9004 36.6434 72.6239 35.7376 73.5239 34.9971C74.4354 34.2451 75.4779 33.6698 76.6514 33.271C77.8249 32.8722 79.0382 32.6729 80.2915 32.6729C80.8498 32.6729 81.4251 32.6956 82.0176 32.7412C82.61 32.7754 83.1968 32.8438 83.7778 32.9463C84.3703 33.0488 84.9456 33.1799 85.5039 33.3394C86.0622 33.4989 86.592 33.6982 87.0933 33.9375L86.4438 40.876C85.6691 40.6139 84.8545 40.3975 84 40.2266C83.1569 40.0443 82.3309 39.9531 81.522 39.9531C81.3739 39.9531 81.1802 39.9588 80.9409 39.9702C80.7131 39.9702 80.4681 39.9873 80.2061 40.0215C79.9554 40.0443 79.6991 40.0841 79.437 40.1411C79.175 40.1981 78.9414 40.2778 78.7363 40.3804C78.5312 40.4715 78.366 40.5968 78.2407 40.7563C78.1154 40.9159 78.0584 41.1038 78.0698 41.3203C78.0812 41.571 78.1724 41.776 78.3433 41.9355C78.5256 42.0837 78.7534 42.2033 79.0269 42.2944C79.3117 42.3742 79.6193 42.4312 79.9497 42.4653C80.2915 42.4995 80.6276 42.5223 80.958 42.5337C81.2884 42.5337 81.596 42.5337 81.8809 42.5337C82.1657 42.5223 82.3993 42.528 82.5815 42.5508C83.493 42.6077 84.3133 42.8014 85.0425 43.1318C85.7716 43.4622 86.3869 43.9009 86.8882 44.4478C87.4009 44.9946 87.7882 45.6497 88.0503 46.4131C88.3237 47.165 88.4604 47.9967 88.4604 48.9082Z" fill="white"/>
      <defs>
      <linearGradient id="paint0_linear" x1="16.5295" y1="3.8964" x2="4.86515" y2="83.9708" gradientUnits="userSpaceOnUse">
      <stop stop-color="#730044"/>
      <stop offset="1" stop-color="#10A7DB"/>
      </linearGradient>
      </defs>
    </symbol>
  </defs>
</svg>