<svg version="1.1" xmlns="http://www.w3.org/2000/svg">  
  <defs>
    <!-- Home -->
    <svg id="home" viewBox="0 0 20 19">
      <path d="M19.9639 10.368C19.9831 10.5073 19.9371 10.6477 19.8396 10.7471C19.742 10.8466 19.6044 10.8935 19.4678 10.874C18.8796 10.874 18.2776 10.874 17.6816 10.874C17.3973 10.874 17.3522 10.924 17.3522 11.218C17.3522 13.2633 17.3522 15.3086 17.3522 17.354C17.3788 17.7179 17.2501 18.0758 16.9992 18.336C16.7483 18.5961 16.3995 18.7332 16.0424 18.712H12.709C12.26 18.712 12.1384 18.58 12.1384 18.112C12.1384 17.064 12.1384 16.016 12.1384 14.968C12.1355 13.9711 11.4132 13.1286 10.445 12.9927C9.47674 12.8568 8.55822 13.4689 8.29137 14.428C8.22999 14.6499 8.19898 14.8794 8.19922 15.11C8.19922 16.11 8.19922 17.11 8.19922 18.124C8.19922 18.578 8.06392 18.724 7.61098 18.724H4.33059C3.47961 18.724 2.95804 18.204 2.9698 17.338C2.9698 16.338 2.9698 15.358 2.9698 14.368C2.9698 13.32 2.9698 12.272 2.9698 11.224C2.9698 10.946 2.91882 10.894 2.64824 10.894C2.08876 10.894 1.52928 10.894 0.969805 10.894C0.495295 10.894 0.356079 10.76 0.356079 10.294C0.356079 9.89397 0.356079 9.49397 0.356079 9.07997C0.337799 8.75033 0.478316 8.43233 0.73255 8.22797C3.22667 6.11064 5.71948 3.99264 8.21098 1.87397L8.89726 1.29197C9.62937 0.657478 10.7044 0.657478 11.4365 1.29197L19.5816 8.22197C19.824 8.41331 19.9648 8.70931 19.962 9.02197C19.9639 9.47797 19.9639 9.92597 19.9639 10.368Z" />
      <path d="M16.8267 5.16797L15.2973 3.87197C14.709 3.37397 14.1208 2.87197 13.5325 2.37797C13.4319 2.30998 13.3767 2.19045 13.3894 2.06797C13.4012 1.93197 13.3894 1.79397 13.3894 1.65597C13.378 1.47997 13.4389 1.30706 13.5576 1.17879C13.6763 1.05051 13.842 0.978469 14.0149 0.97997C14.7443 0.96797 15.4737 0.96797 16.2031 0.97997C16.5373 0.97312 16.8158 1.23942 16.8306 1.57997C16.8384 2.76797 16.8267 3.94397 16.8267 5.16797Z" />
    </svg>
    <!-- Star -->
    <svg id="star" viewBox="0 0 21 21">
      <path d="M15.2909 6.5686L19.6134 7.21838C20.839 7.40256 21.3301 8.973 20.4445 9.87561L17.3208 13.0589C16.9691 13.4174 16.8091 13.9334 16.8927 14.4388L17.636 18.9275C17.8467 20.2004 16.5669 21.1728 15.47 20.5732L11.6023 18.4584C11.1667 18.2203 10.6466 18.2208 10.2117 18.4601L6.3487 20.5847C5.25332 21.1871 3.97105 20.2177 4.17884 18.9444L4.91186 14.4538C4.99431 13.9482 4.83324 13.4324 4.48054 13.0748L1.3501 9.89928C0.462302 8.99877 0.949783 7.42716 2.17523 7.23994L6.49606 6.57962C6.98265 6.50533 7.40296 6.18595 7.61997 5.72574L9.5481 1.63843C10.0949 0.479466 11.6784 0.477357 12.2277 1.63515L14.165 5.71754C14.3832 6.17705 14.8041 6.49549 15.2909 6.5686Z" />
    </svg>
    <!-- Plus -->
    <svg id="plus" viewBox="0 0 20 20">
      <path d="M0.359985 10.268C0.359985 15.5147 4.61328 19.768 9.85999 19.768C15.1067 19.768 19.36 15.5147 19.36 10.268C19.36 5.0213 15.1067 0.768005 9.85999 0.768005C4.61328 0.768005 0.359985 5.0213 0.359985 10.268ZM5.02362 11.1316C4.54665 11.1316 4.15999 10.745 4.15999 10.268C4.15999 9.79103 4.54665 9.40437 5.02362 9.40437H8.13271C8.60969 9.40437 8.99635 9.01771 8.99635 8.54073V5.43164C8.99635 4.95467 9.38301 4.56801 9.85999 4.56801C10.337 4.56801 10.7236 4.95467 10.7236 5.43164V8.54073C10.7236 9.01771 11.1103 9.40437 11.5873 9.40437H14.6963C15.1733 9.40437 15.56 9.79103 15.56 10.268C15.56 10.745 15.1733 11.1316 14.6963 11.1316H11.5873C11.1103 11.1316 10.7236 11.5183 10.7236 11.9953V15.1044C10.7236 15.5813 10.337 15.968 9.85999 15.968C9.38301 15.968 8.99635 15.5813 8.99635 15.1044V11.9953C8.99635 11.5183 8.60969 11.1316 8.13271 11.1316H5.02362Z"/>
    </svg>
    <!-- Info -->
    <svg id="info" viewBox="0 0 24 24">
      <path d="M12 0c-6.627 0-12 5.373-12 12s5.373 12 12 12 12-5.373 12-12-5.373-12-12-12zm-2.033 16.01c.564-1.789 1.632-3.932 1.821-4.474.273-.787-.211-1.136-1.74.209l-.34-.64c1.744-1.897 5.335-2.326 4.113.613-.763 1.835-1.309 3.074-1.621 4.03-.455 1.393.694.828 1.819-.211.153.25.203.331.356.619-2.498 2.378-5.271 2.588-4.408-.146zm4.742-8.169c-.532.453-1.32.443-1.761-.022-.441-.465-.367-1.208.164-1.661.532-.453 1.32-.442 1.761.022.439.466.367 1.209-.164 1.661z"/>
    </svg>
  </defs>
</svg>